# xmcd
# 
# Track frame offsets:
#     150
#     24453
#     45999
#     70107
#     90080
#     123262
#     139918
#     161110
#     177142
#     191065
#     221876
# 
# Disc length: 3267
# 
# Revision: 1
# Processed by: cddbd v1.5.2PL0 Copyright (c) Steve Scherf et al.
# Submitted via: fre:ac v1.0.17
# 
DISCID=920cc10b
DTITLE=Medeski Martin and Wood - Book of Angels vol. 11 - Zaebos
DYEAR=2008
DGENRE=Jazz
TTITLE0=Zagzagel
TTITLE1=Sefrial
TTITLE2=Agmatia
TTITLE3=Rifion
TTITLE4=Chafriel
TTITLE5=Ahaij
TTITLE6=Asaliah
TTITLE7=Vianuel
TTITLE8=Jeduthun
TTITLE9=Malach Ha-Sopher
TTITLE10=Tutrusa'i
EXTD=YEAR: 2008
EXTT0=
EXTT1=
EXTT2=
EXTT3=
EXTT4=
EXTT5=
EXTT6=
EXTT7=
EXTT8=
EXTT9=
EXTT10=
PLAYORDER=
